<svg xmlns="http://www.w3.org/2000/svg" viewBox="0 0 100 100">
  <defs>
    <linearGradient id="grad" x1="0%" y1="0%" x2="100%" y2="100%">
      <stop offset="0%" style="stop-color:#d4af37;stop-opacity:1" />
      <stop offset="100%" style="stop-color:#f5e2a8;stop-opacity:1" />
    </linearGradient>
  </defs>
  <rect width="100" height="100" rx="20" fill="url(#grad)"/>
  <path d="M70 20 L70 60 C70 68 64 72 58 72 C52 72 46 68 46 60 C46 52 52 48 58 48 C61 48 64 49 66 51 L66 30 L45 35 L45 70 C45 78 39 82 33 82 C27 82 21 78 21 70 C21 62 27 58 33 58 C36 58 39 59 41 61 L41 25 L70 20 Z" fill="#1a1a1a" opacity="0.9"/>
</svg>
